<?xml version="1.0" encoding="UTF-8" standalone="no"?>
<svg
   xmlns:dc="http://purl.org/dc/elements/1.1/"
   xmlns:cc="http://creativecommons.org/ns#"
   xmlns:rdf="http://www.w3.org/1999/02/22-rdf-syntax-ns#"
   xmlns:svg="http://www.w3.org/2000/svg"
   xmlns="http://www.w3.org/2000/svg"
   viewBox="0 0 2933.3333 2933.3333"
   height="2933.3333"
   width="2933.3333"
   xml:space="preserve"
   id="svg2"
   version="1.1"><metadata
     id="metadata8"><rdf:RDF><cc:Work
         rdf:about=""><dc:format>image/svg+xml</dc:format><dc:type
           rdf:resource="http://purl.org/dc/dcmitype/StillImage" /></cc:Work></rdf:RDF></metadata><defs
     id="defs6" /><g
     transform="matrix(1.3333333,0,0,-1.3333333,0,2933.3333)"
     id="g10"><g
       transform="scale(0.1)"
       id="g12"><g
         transform="scale(1.34969)"
         id="g14"><path
           id="path16"
           style="fill:#ffffff;fill-opacity:0;fill-rule:nonzero;stroke:none"
           d="M 0,0 V 16300 H 16300 V 0 H 0" /></g><g
         transform="scale(1.19265)"
         id="g18"><path
           id="path20"
           style="fill:#040606;fill-opacity:1;fill-rule:nonzero;stroke:none"
           d="m 15486.1,14091.5 c -12.7,36.1 -40.3,117.2 -53.1,151.7 -19.7,48.1 -41,101.4 -61.5,149 -17.9,36.4 -51.3,110.3 -69.7,145.7 -25.3,45.8 -51.4,96.9 -77.9,141.8 -34.2,54.6 -78.2,130.4 -116.4,181.8 -19.8,27.6 -41.1,61 -62.7,87.9 l -66.5,85.2 c -5.6,7.1 -10.9,14.3 -16.8,21.1 -24.7,29.3 -63.6,72.9 -88.5,102 -26.5,28.6 -83.1,88.2 -111.9,116.8 -36.8,33.2 -78.8,76 -118.6,109.9 -30.4,25.2 -72.5,61.5 -103.3,86.4 -42.1,31.3 -106.8,82.9 -151.3,111.7 -992.6,682.7 -2329.7,717.5 -3431.7,302.8 -999.87,-372.8 -1759.36,-1117.3 -2233.51,-2064 -38.99,-77.9 -75.72,-156.8 -110.43,-236.5 -563.11,861.9 -1556.46,1443.5 -2589.88,1471.6 -1992.61,47.2 -3118.39,-1937.3 -2812.62,-3749 20.7,-126.8 49.53,-254.5 84.71,-378.1 44.27,-158.1 93.59,-322.5 147.73,-477.1 15.65,-42.6 47.21,-134.5 62.96,-176.6 16.03,-39.6 51.66,-133.7 68.65,-174.6 13.39,-34.9 32.73,-80.9 48.2,-115.49 20.98,-46.03 52.65,-126.02 75.77,-171.64 200.1,-434.41 451.03,-849.03 743.85,-1226.18 808.33,-1044.81 1941.16,-1764.56 3063.14,-2427.7 25.97,-15.43 59.92,-8.14 77.01,17.19 17.75,26.33 10.8,62.04 -15.51,79.82 -797.9,539.3 -1596.71,1091.02 -2264.06,1789.21 -828.71,866.89 -1326.77,1853.35 -1586.77,3019.39 -370.41,1600.4 642.47,3591.9 2487.81,3300.8 1023.9,-170.1 1963.39,-1034 2053.46,-2093 48.14,-463.9 699.83,-505.2 801.53,-44.4 101.46,522 297.58,1022.1 585.26,1465.5 264.28,406.3 607.9,760.9 1020.1,1015.1 844.1,516.6 2025,615.8 2886.5,115.1 l 58.5,-35.8 c 5.1,-2.9 9.7,-6 14.2,-9.1 19.7,-14 48.7,-32.7 68.6,-46.6 24.1,-18.4 55.3,-41.8 78.9,-60.4 l 50.5,-42.5 c 4.1,-3.5 8.5,-6.9 12.6,-10.6 l 12,-11.3 24.1,-22.6 c 29.2,-25.2 65,-65.3 93,-92.9 24.2,-28.3 63.1,-70.9 84.6,-100.5 10.5,-13.9 31,-38 39.9,-51.9 l 37.6,-53.7 c 3.1,-4.5 6.5,-8.8 9.3,-13.4 l 8.7,-14 17.3,-27.8 c 21.5,-32.2 46.7,-79.1 65.7,-113.4 14,-28.6 29.9,-59.5 43.6,-88.4 4.6,-9.9 8.6,-20.2 13,-30.3 l 26,-60.5 22.5,-62.1 11.5,-31 9.7,-31.8 19.6,-63.4 c 8,-31 16.6,-66 24.7,-97.1 2.9,-10.7 4.4,-22 6.7,-32.9 l 13.2,-66 c 6.8,-36.5 11.5,-80.3 17.7,-117.1 61.8,-538.4 -60.6,-1072.6 -266.1,-1572.3 -15.1,-39.9 -43,-102.7 -60.5,-141.4 -19.2,-42.2 -43.4,-99.3 -65.3,-140.4 -333.5,-679 -763.1,-1295.3 -1266.5,-1865.05 C 12182,9043.4 11466,8420.42 10841.6,7771.27 10050.5,6962.15 9364.96,6022.14 8899.61,4986.89 8678.84,4506.11 8497.73,4000.43 8353.07,3492.48 c -63.44,-225.72 -120.33,-452.69 -169.45,-681.09 -5.53,-25.66 7.03,-52.66 31.76,-64.4 29.07,-13.74 63.88,-1 77.26,28.18 49.69,104.72 96.92,210.29 147.57,314.42 146.73,311.5 304.28,620.31 469.96,920.81 436.93,792.78 955.52,1533.65 1573.43,2188.74 620.6,665.83 1324.3,1218.97 2029.6,1808.17 318.7,267.05 634.6,542.91 932.1,834.86 1336.6,1320.53 2643.3,3293.73 2040.8,5249.33" /></g></g></g></svg>